<svg width="64" height="29" viewBox="0 0 64 29" fill="none" xmlns="http://www.w3.org/2000/svg">
<path fill-rule="evenodd" clip-rule="evenodd" d="M37.7862 3.2826H39.3779V10.6976H37.7862V3.2826ZM40.7779 0L38.9612 1.99122H37.4112L38.9862 0H40.7779ZM45.5338 3.45175C45.0338 3.2268 44.4755 3.11849 43.8755 3.11849V3.12682C43.2338 3.12682 42.6588 3.25179 42.1422 3.50173C41.6422 3.74335 41.2422 4.10993 40.9422 4.60149L42.0755 5.50129C42.2422 5.20136 42.4755 4.96808 42.7755 4.80145C43.0755 4.63482 43.4255 4.5515 43.8172 4.5515C44.3672 4.5515 44.8088 4.69314 45.1339 4.97641C45.4672 5.25968 45.6339 5.66792 45.6339 6.20947V6.97596C45.4172 6.75101 45.1338 6.56772 44.7922 6.44275C44.4422 6.31778 44.0505 6.25112 43.6005 6.25112C42.7172 6.25112 42.0005 6.45941 41.4505 6.87598C40.9088 7.29256 40.6338 7.85077 40.6338 8.55894C40.6338 9.26712 40.9005 9.82533 41.4338 10.2419C41.9755 10.6501 42.6588 10.8501 43.5005 10.8501C44.0089 10.8501 44.4422 10.7751 44.8172 10.6335C45.2005 10.4835 45.5005 10.2586 45.7172 9.96696V10.6918H47.2088V6.0595C47.2088 5.40964 47.0589 4.8681 46.7505 4.43486C46.4422 3.99329 46.0422 3.66836 45.5338 3.45175ZM45.1922 9.35877C44.8839 9.55039 44.4838 9.65037 43.9755 9.65037C43.4672 9.65037 43.0588 9.55039 42.7422 9.35877C42.4255 9.15881 42.2672 8.90054 42.2672 8.54228C42.2672 8.18403 42.4255 7.90909 42.7422 7.71746C43.0588 7.52584 43.4672 7.42586 43.9755 7.42586C44.4838 7.42586 44.8839 7.52584 45.1922 7.71746C45.5089 7.90909 45.6672 8.19236 45.6672 8.54228C45.6672 8.8922 45.5089 9.16714 45.1922 9.35877ZM53.7029 28.1292C54.0529 28.5041 54.5612 28.6958 55.2195 28.6958H56.0529V27.3044H55.4945C55.0195 27.3044 54.7779 27.0295 54.7779 26.4879V17.8065H53.1862V26.5879C53.1862 27.2378 53.3612 27.7543 53.7029 28.1292ZM63.6194 25.3694C63.636 25.2861 63.636 25.1361 63.636 24.9361H63.611C63.611 24.1863 63.461 23.5281 63.1693 22.9449C62.886 22.3617 62.486 21.9118 61.9694 21.5952C61.4527 21.2786 60.886 21.1203 60.2027 21.1203C59.5194 21.1203 58.9027 21.2786 58.3693 21.5952C57.836 21.9201 57.4194 22.37 57.111 22.9616C56.8194 23.5448 56.6693 24.2113 56.6693 24.9778C56.6693 25.7443 56.8194 26.4191 57.1277 27.0107C57.436 27.5939 57.8777 28.0521 58.4277 28.377C58.9943 28.6936 59.6277 28.8519 60.336 28.8519C60.9694 28.8519 61.5443 28.7353 62.0694 28.502C62.611 28.2687 63.0527 27.9021 63.4194 27.4106L62.3194 26.4858C61.886 27.1357 61.2277 27.4606 60.361 27.4606C59.7777 27.4606 59.3027 27.2856 58.9277 26.9357C58.5694 26.5774 58.3527 26.0526 58.286 25.3694H63.6194ZM58.961 22.9033C59.2851 22.6042 59.7003 22.4542 60.2067 22.4534C60.6882 22.4542 61.0786 22.6042 61.3944 22.9033C61.711 23.1949 61.911 23.6364 61.9943 24.228H58.3277C58.4277 23.6448 58.636 23.2032 58.961 22.9033ZM48.4781 21.1206C49.1031 21.1206 49.6615 21.2873 50.1698 21.6289C50.6781 21.9538 51.0698 22.4203 51.3615 23.0035C51.6615 23.5867 51.8031 24.2449 51.8031 24.9781C51.8031 25.7113 51.6532 26.3778 51.3615 26.9693C51.0781 27.5609 50.6781 28.0274 50.1698 28.3607C49.6615 28.6856 49.1031 28.8522 48.4781 28.8522C47.4282 28.8522 46.6282 28.394 46.0865 27.4776V28.6939H44.4948V17.813H46.0865V22.5037C46.3365 22.0788 46.6615 21.7455 47.0615 21.5039C47.4615 21.2539 47.9365 21.129 48.4781 21.129V21.1206ZM48.1198 27.4192C48.7448 27.4192 49.2365 27.2026 49.6115 26.7694C49.9948 26.3361 50.1865 25.7363 50.1865 24.9864C50.1865 24.2366 49.9948 23.6451 49.6115 23.2118C49.2365 22.7869 48.7448 22.5703 48.1198 22.5703C47.4948 22.5703 47.0115 22.7869 46.6282 23.2202C46.2448 23.6451 46.0531 24.2283 46.0531 24.9781C46.0531 25.7279 46.2448 26.3278 46.6282 26.761C47.0115 27.1943 47.5032 27.4109 48.1198 27.4109V27.4192ZM41.172 21.4536C40.672 21.2286 40.1137 21.1203 39.5136 21.1203V21.1287C38.872 21.1287 38.297 21.2536 37.7803 21.5036C37.2803 21.7452 36.8803 22.1118 36.5803 22.6033L37.7136 23.5031C37.8803 23.2032 38.1137 22.9699 38.4137 22.8033C38.7136 22.6367 39.0637 22.5533 39.4553 22.5533C40.0053 22.5533 40.447 22.695 40.772 22.9782C41.1053 23.2615 41.272 23.6698 41.272 24.2113V24.9778C41.0553 24.7528 40.772 24.5696 40.4303 24.4446C40.0803 24.3196 39.6886 24.253 39.2386 24.253C38.3553 24.253 37.6386 24.4612 37.0886 24.8778C36.547 25.2944 36.272 25.8526 36.272 26.5608C36.272 27.269 36.5387 27.8272 37.072 28.2437C37.6137 28.652 38.297 28.8519 39.1386 28.8519C39.647 28.8519 40.0803 28.777 40.4553 28.6353C40.8386 28.4853 41.1386 28.2604 41.3553 27.9688V28.6936H42.847V24.0613C42.847 23.4115 42.697 22.8699 42.3886 22.4367C42.0803 21.9951 41.6803 21.6702 41.172 21.4536ZM40.8303 27.3606C40.522 27.5522 40.122 27.6522 39.6136 27.6522C39.1053 27.6522 38.697 27.5522 38.3803 27.3606C38.0636 27.1606 37.9053 26.9024 37.9053 26.5441C37.9053 26.1859 38.0636 25.9109 38.3803 25.7193C38.697 25.5277 39.1053 25.4277 39.6136 25.4277C40.122 25.4277 40.522 25.5277 40.8303 25.7193C41.147 25.9109 41.3053 26.1942 41.3053 26.5441C41.3053 26.894 41.147 27.169 40.8303 27.3606ZM31.658 28.6916L28.733 21.2766H30.4663L32.0413 25.4673C32.2747 26.1338 32.383 26.5671 32.383 26.7587H32.4413C32.4413 26.5671 32.558 26.1338 32.783 25.4673L34.3413 21.2766H36.033L33.1413 28.6916H31.658ZM22.7567 28.3604C23.3234 28.6853 23.965 28.8519 24.6734 28.8519C25.3817 28.8519 26.015 28.6853 26.5817 28.3604C27.1567 28.0271 27.6067 27.5772 27.9317 26.994C28.2567 26.4025 28.415 25.7276 28.415 24.9778C28.415 24.228 28.2567 23.5698 27.9317 22.9866C27.6067 22.4034 27.1567 21.9368 26.5817 21.6119C26.015 21.287 25.3734 21.1203 24.6734 21.1203C23.9734 21.1203 23.3317 21.287 22.7567 21.6119C22.19 21.9368 21.7484 22.395 21.4234 22.9866C21.0984 23.5698 20.94 24.228 20.94 24.9778C20.94 25.7276 21.0984 26.4025 21.4234 26.994C21.7484 27.5772 22.19 28.0355 22.7567 28.3604ZM26.19 26.7691C25.7984 27.2023 25.29 27.4189 24.6734 27.4189C24.0567 27.4189 23.5484 27.2023 23.1567 26.7691C22.7734 26.3358 22.5734 25.736 22.5734 24.9861C22.5734 24.2363 22.765 23.6531 23.1567 23.2282C23.5484 22.7949 24.0567 22.5783 24.6734 22.5783C25.29 22.5783 25.7984 22.7949 26.19 23.2282C26.59 23.6531 26.79 24.2363 26.79 24.9861C26.79 25.736 26.59 26.3358 26.19 26.7691ZM16.9921 21.1175C17.5004 21.1175 17.9504 21.2424 18.3504 21.484C18.7504 21.7173 19.0671 22.0506 19.2921 22.4838C19.5254 22.9171 19.6338 23.4169 19.6338 23.9752V28.6908H18.0421V24.2334C18.0421 23.7086 17.9004 23.3003 17.6254 23.0004C17.3588 22.6921 17.0004 22.5338 16.5671 22.5338C16.0588 22.5338 15.6504 22.6921 15.3338 23.0087C15.0254 23.3253 14.8754 23.7585 14.8754 24.3001V28.6824H13.2838V21.2674H14.8754V22.3089C15.0921 21.9006 15.3838 21.6007 15.7504 21.4091C16.1254 21.2091 16.5338 21.1008 16.9838 21.1008L16.9921 21.1175ZM11.9505 25.3694C11.9672 25.2861 11.9672 25.1361 11.9672 24.9361H11.9422C11.9422 24.1863 11.8005 23.5281 11.5005 22.9449C11.2172 22.3617 10.8172 21.9118 10.3005 21.5952C9.79221 21.2786 9.22555 21.1203 8.54221 21.1203C7.85888 21.1203 7.24221 21.2786 6.70888 21.5952C6.17555 21.9201 5.75888 22.37 5.45055 22.9616C5.15888 23.5448 5.00888 24.2113 5.00888 24.9778C5.00888 25.7443 5.15888 26.4191 5.46721 27.0107C5.77555 27.5939 6.21721 28.0521 6.76721 28.377C7.33388 28.6936 7.96721 28.8519 8.67555 28.8519C9.30888 28.8519 9.88388 28.7353 10.4089 28.502C10.9505 28.2687 11.3922 27.9021 11.7589 27.4106L10.6589 26.4858C10.2172 27.1357 9.55888 27.4606 8.69221 27.4606C8.10888 27.4606 7.63388 27.2856 7.25888 26.9357C6.90055 26.5774 6.68388 26.0526 6.61721 25.3694H11.9505ZM7.29221 22.9033C7.6163 22.6042 8.03154 22.4542 8.53793 22.4534C9.0194 22.4542 9.40977 22.6042 9.72555 22.9033C10.0422 23.1949 10.2422 23.6364 10.3255 24.228H6.65888C6.75888 23.6448 6.96721 23.2032 7.29221 22.9033ZM4.53309 21.1287V22.8366H3.79142C3.32476 22.8366 2.94143 23.0116 2.64143 23.3615C2.34142 23.7114 2.19976 24.178 2.19976 24.7695V28.702H0.608091V21.2869H2.19976V22.445C2.39976 22.0035 2.66642 21.6702 2.99976 21.4619C3.33309 21.237 3.70809 21.1287 4.13309 21.1287H4.53309ZM36.1089 3.27965H34.5173V3.30465V4.46272C33.9923 3.57959 33.2256 3.13802 32.2256 3.13802C31.5923 3.13802 31.0339 3.29631 30.5339 3.61291C30.0423 3.92118 29.6589 4.36274 29.3839 4.92095C29.1089 5.47916 28.9673 6.12902 28.9673 6.82053C28.9673 7.51204 29.1089 8.14524 29.3839 8.70345C29.6673 9.26999 30.0506 9.71156 30.5339 10.0282C31.0339 10.3364 31.5923 10.4947 32.2256 10.4947C32.7506 10.4947 33.2006 10.3781 33.5839 10.1448C33.9673 9.91151 34.2756 9.59491 34.5173 9.18667V10.4364C34.5173 11.1029 34.3256 11.6195 33.9339 11.9777C33.5423 12.336 33.0423 12.5109 32.4423 12.5109C32.0256 12.5109 31.6339 12.411 31.2839 12.2193C30.9339 12.036 30.6339 11.7778 30.3839 11.4362L29.3089 12.3943C29.6756 12.9108 30.1339 13.3024 30.6839 13.5524C31.2339 13.8023 31.8173 13.9273 32.4173 13.9273C33.1423 13.9273 33.7839 13.7856 34.3339 13.5024C34.8923 13.2191 35.3256 12.8109 35.6339 12.2693C35.9506 11.7278 36.1089 11.0779 36.1089 10.3364V3.27965ZM33.9839 8.41184C33.6256 8.82842 33.1506 9.03671 32.5673 9.03671C31.9839 9.03671 31.5089 8.83675 31.1339 8.42851C30.7756 8.02027 30.5923 7.49538 30.5923 6.80387C30.5923 6.11236 30.7673 5.57081 31.1339 5.16257C31.5089 4.75432 31.9839 4.55437 32.5673 4.55437C33.1506 4.55437 33.6173 4.77099 33.9839 5.19589C34.3589 5.61247 34.5423 6.14568 34.5423 6.80387C34.5423 7.46206 34.3589 7.99527 33.9839 8.41184ZM28.4326 3.12682V4.83477H27.6909C27.2243 4.83477 26.8409 5.00973 26.5409 5.35965C26.2409 5.70958 26.0993 6.17614 26.0993 6.76768V10.7001H24.5076V3.28512H26.0993V4.44319C26.2993 4.00162 26.5659 3.66836 26.8993 3.46008C27.2326 3.23513 27.6076 3.12682 28.0326 3.12682H28.4326ZM23.1716 6.94096V6.94082H23.1466C23.1466 6.19099 23.0049 5.5328 22.7049 4.9496C22.4216 4.36639 22.0216 3.91649 21.5049 3.5999C20.9966 3.2833 20.4299 3.125 19.7466 3.125C19.0633 3.125 18.4466 3.2833 17.9132 3.5999C17.3799 3.92482 16.9632 4.37472 16.6549 4.96626C16.3632 5.54946 16.2132 6.21598 16.2132 6.98248C16.2132 7.74897 16.3632 8.42382 16.6716 9.01536C16.9799 9.59856 17.4216 10.0568 17.9716 10.3817C18.5382 10.6983 19.1716 10.8566 19.8799 10.8566C20.5133 10.8566 21.0882 10.74 21.6132 10.5067C22.1549 10.2734 22.5966 9.90683 22.9632 9.41527L21.8632 8.49048C21.4216 9.14033 20.7633 9.46526 19.8966 9.46526C19.3133 9.46526 18.8382 9.2903 18.4632 8.94037C18.1049 8.58212 17.8882 8.05724 17.8216 7.37406H23.1549C23.1716 7.29076 23.1716 7.14084 23.1716 6.94096ZM18.4966 4.90794C18.8207 4.60885 19.2359 4.45888 19.7423 4.45804C20.2238 4.45888 20.6141 4.60885 20.9299 4.90794C21.2466 5.19954 21.4466 5.64111 21.5299 6.23264H17.8632C17.9632 5.64944 18.1716 5.20787 18.4966 4.90794ZM19.7423 4.45804L19.7382 4.45804H19.7466L19.7423 4.45804ZM12.2719 3.11849C12.7802 3.11849 13.2302 3.24346 13.6302 3.48507C14.0302 3.71835 14.3469 4.05161 14.5719 4.48485C14.8052 4.91809 14.9136 5.41798 14.9136 5.97618V10.6918H13.3219V6.23446C13.3219 5.70958 13.1802 5.30133 12.9052 5.0014C12.6386 4.69314 12.2886 4.53484 11.8469 4.53484C11.3386 4.53484 10.9302 4.69314 10.6136 5.00973C10.3052 5.32633 10.1552 5.75957 10.1552 6.30111V10.6835H8.56357V3.28512H10.1552V4.32655C10.3719 3.91831 10.6636 3.61838 11.0302 3.42675C11.4052 3.2268 11.8136 3.11849 12.2636 3.11849H12.2719ZM7.22426 7.37406C7.24092 7.29074 7.24092 7.14078 7.24092 6.94082H7.21593C7.21593 6.19099 7.07426 5.5328 6.77426 4.9496C6.49093 4.36639 6.09093 3.91649 5.57426 3.5999C5.06593 3.2833 4.49926 3.125 3.81593 3.125C3.13259 3.125 2.51592 3.2833 1.98259 3.5999C1.44926 3.92482 1.03259 4.37472 0.724258 4.96626C0.432592 5.54946 0.282593 6.21598 0.282593 6.98248C0.282593 7.74897 0.432592 8.42382 0.740925 9.01536C1.04926 9.59856 1.49092 10.0568 2.04092 10.3817C2.60759 10.6983 3.24092 10.8566 3.94926 10.8566C4.58259 10.8566 5.15759 10.74 5.68259 10.5067C6.22426 10.2734 6.66592 9.90683 7.03259 9.41527L5.93259 8.49048C5.49092 9.14033 4.83259 9.46526 3.96593 9.46526C3.38259 9.46526 2.90759 9.2903 2.53259 8.94037C2.17426 8.58212 1.95759 8.05724 1.89092 7.37406H7.22426ZM2.56593 4.90794C2.89093 4.60801 3.30759 4.45804 3.81593 4.45804H3.80759C4.29093 4.45804 4.68259 4.60801 4.99926 4.90794C5.31593 5.19954 5.51592 5.64111 5.59926 6.23264H1.93259C2.03259 5.64944 2.24093 5.20787 2.56593 4.90794Z" fill="#00A443"/>
</svg>
