<svg width="130" height="40" viewBox="0 0 130 40" fill="none" xmlns="http://www.w3.org/2000/svg">
<g id="Safety Area">
<g id="Logo">
<path id="Vector" d="M44.9953 12.0391H42.6504V27.9717H44.9953V12.0391Z" fill="white"/>
<path id="Vector_2" d="M55.9306 16.9451C55.1249 16.434 54.1877 16.1689 53.2337 16.1823C52.3688 16.1823 51.6328 16.3605 51.0257 16.7169C50.4268 17.0664 49.9166 17.5494 49.5349 18.1284C49.4592 18.2485 49.3872 18.3626 49.3187 18.4828V12.0391H47.0879V27.9729H49.3187V25.9127C49.3836 26.0329 49.452 26.1434 49.5241 26.2539C49.901 26.8369 50.4122 27.3209 51.0149 27.6654C51.6284 28.0218 52.368 28.2 53.2337 28.2C53.9557 28.2079 54.6707 28.0566 55.3275 27.7567C55.9638 27.461 56.5332 27.0388 57.0009 26.5158C57.4943 25.9599 57.8767 25.3149 58.1278 24.6153C58.4077 23.8382 58.5465 23.0172 58.5374 22.1911C58.5374 21.0075 58.3023 19.9664 57.8322 19.0678C57.3993 18.2031 56.7427 17.4702 55.9306 16.9451ZM55.9991 23.8645C55.8403 24.3293 55.5917 24.7583 55.2675 25.1271C54.9635 25.4716 54.5863 25.7438 54.1635 25.9235C53.7167 26.1105 53.2363 26.2037 52.752 26.1974C51.7357 26.1974 50.9012 25.8447 50.2485 25.1391C49.5958 24.4335 49.2694 23.4509 49.2694 22.1911C49.2596 21.6197 49.3481 21.0508 49.5313 20.5093C49.691 20.0491 49.9382 19.624 50.2593 19.2576C50.562 18.9143 50.9398 18.6455 51.3633 18.472C51.8045 18.2945 52.2764 18.2055 52.752 18.2101C53.7843 18.2101 54.6252 18.5593 55.2747 19.2576C55.9242 19.9559 56.2505 20.9346 56.2537 22.1935C56.2641 22.761 56.178 23.326 55.9991 23.8645Z" fill="white"/>
<path id="Vector_3" d="M67.8127 16.9224C66.9822 16.4221 66.0276 16.1657 65.0581 16.1824C64.2905 16.1728 63.5285 16.3157 62.8165 16.6029C62.1483 16.8797 61.547 17.2963 61.053 17.8246C60.5424 18.3716 60.1509 19.0188 59.9034 19.725C59.6282 20.5189 59.4932 21.3547 59.5046 22.1949C59.5046 23.3961 59.7472 24.4469 60.2326 25.347C60.6933 26.2219 61.3862 26.953 62.2351 27.4601C63.1249 27.9798 64.1408 28.2438 65.1711 28.2229C65.8302 28.2242 66.486 28.1283 67.1172 27.9382C67.7507 27.7472 68.3391 27.4301 68.847 27.006C69.3995 26.538 69.8591 25.9703 70.2021 25.3326L68.4722 24.2623C68.257 24.6954 67.9638 25.0851 67.6073 25.4119C67.2848 25.7014 66.9044 25.9188 66.4913 26.0498C66.0632 26.1813 65.6176 26.2465 65.1699 26.2432C64.5551 26.2533 63.9492 26.096 63.4172 25.7879C62.8865 25.4663 62.4633 24.9942 62.2015 24.4317C61.9508 23.8917 61.8068 23.3084 61.7774 22.7138H70.3847C70.4 22.6084 70.4077 22.502 70.4075 22.3955V22.0988C70.4075 20.9151 70.176 19.8796 69.7131 18.9922C69.2827 18.1402 68.625 17.4238 67.8127 16.9224ZM62.6339 19.1304C62.9059 18.7805 63.2628 18.5059 63.6706 18.3327C64.1032 18.1543 64.5675 18.0656 65.0353 18.072C65.4605 18.0605 65.8829 18.1444 66.2715 18.3176C66.66 18.4907 67.0048 18.7488 67.2805 19.0727C67.6978 19.5532 67.9657 20.2135 68.0842 21.0536H61.8435C61.8777 20.8423 61.925 20.6332 61.9852 20.4278C62.1182 19.9584 62.3383 19.5183 62.6339 19.1304Z" fill="white"/>
<path id="Vector_4" d="M77.8718 16.182H77.2111C76.5622 16.1721 75.9248 16.3543 75.3791 16.7058C74.8402 17.051 74.4037 17.5839 74.0697 18.3047V16.4091H71.8438V27.9727H74.0733V21.8041C74.0733 20.8182 74.324 20.0289 74.8254 19.4363C75.0548 19.1527 75.3458 18.925 75.6763 18.7705C76.0069 18.6161 76.3682 18.5389 76.733 18.545H77.8718V16.182Z" fill="white"/>
<path id="Vector_5" d="M87.0679 18.4828C86.9995 18.3626 86.9286 18.2425 86.8517 18.1284C86.47 17.5494 85.9599 17.0664 85.3609 16.7169C84.7546 16.3597 84.0263 16.1815 83.1757 16.1823C82.4514 16.1752 81.7339 16.3226 81.0711 16.6148C80.4278 16.9026 79.8541 17.3259 79.3893 17.8557C78.8999 18.4125 78.5211 19.0575 78.2733 19.7561C77.999 20.5382 77.8644 21.3624 77.8757 22.1911C77.8757 23.3748 78.1067 24.4179 78.5688 25.3205C78.9983 26.1845 79.6549 26.9154 80.468 27.4348C81.2783 27.9445 82.2186 28.209 83.1757 28.1964C84.0263 28.1964 84.7586 28.0182 85.3729 27.6618C85.9738 27.3174 86.484 26.8347 86.8613 26.2539C86.9334 26.1434 87.0007 26.0293 87.0655 25.9127V27.9729H89.2963V12.0391H87.0679V18.4828ZM86.1465 25.1271C85.84 25.4735 85.4588 25.7459 85.0317 25.9235C84.5881 26.1083 84.1116 26.2015 83.631 26.1974C82.5987 26.1974 81.7578 25.8447 81.1083 25.1391C80.4588 24.4335 80.1325 23.4509 80.1293 22.1911C80.1194 21.6197 80.208 21.0508 80.3912 20.5093C80.5513 20.049 80.7989 19.6239 81.1203 19.2576C81.4226 18.9138 81.8005 18.6448 82.2243 18.472C82.6727 18.2931 83.1519 18.2041 83.6346 18.2101C84.6509 18.2101 85.4858 18.5593 86.1393 19.2576C86.7928 19.9559 87.1188 20.9346 87.1172 22.1935C87.1235 22.7608 87.0371 23.3252 86.8613 23.8645C86.7111 24.3295 86.4679 24.759 86.1465 25.1271Z" fill="white"/>
<path id="Vector_6" d="M97.4243 16.182H96.7648C96.1158 16.1721 95.4784 16.3543 94.9328 16.7058C94.3938 17.051 93.9573 17.5839 93.6234 18.3047V16.4091H91.3926V27.9727H93.6234V21.8041C93.6234 20.8182 93.8736 20.0289 94.3742 19.4363C94.6041 19.152 94.8959 18.9239 95.2273 18.7695C95.5588 18.615 95.9211 18.5382 96.2866 18.545H97.4243V16.182Z" fill="white"/>
<path id="Vector_7" d="M106.302 16.9326C105.376 16.4204 104.332 16.1615 103.275 16.1818C102.48 16.1742 101.691 16.3211 100.952 16.6142C100.251 16.8943 99.6161 17.3169 99.0868 17.8552C98.5501 18.4012 98.1313 19.0517 97.8567 19.7664C97.5617 20.5402 97.415 21.3626 97.4242 22.1906C97.4242 23.3743 97.6785 24.4214 98.1871 25.332C98.6745 26.2214 99.3994 26.9579 100.281 27.4595C101.201 27.9767 102.242 28.24 103.297 28.2223C104.093 28.2298 104.882 28.0791 105.619 27.779C106.317 27.4924 106.951 27.0707 107.485 26.5381C108.023 25.9971 108.441 25.3498 108.714 24.6376C109.01 23.8563 109.157 23.0262 109.146 22.1906C109.146 20.9893 108.893 19.9386 108.385 19.0384C107.898 18.1579 107.177 17.4291 106.302 16.9326ZM106.597 23.8748C106.434 24.3431 106.177 24.7731 105.842 25.1386C105.524 25.4795 105.136 25.7471 104.704 25.923C104.249 26.1084 103.761 26.2015 103.27 26.1969C102.634 26.2048 102.009 26.0386 101.461 25.7164C100.917 25.3883 100.478 24.9115 100.196 24.3421C99.8833 23.7431 99.7275 23.0259 99.7283 22.1906C99.7184 21.6191 99.807 21.0502 99.9902 20.5088C100.151 20.0465 100.403 19.621 100.73 19.2571C101.044 18.9109 101.433 18.6421 101.868 18.4714C102.317 18.2952 102.796 18.2063 103.279 18.2095C103.93 18.198 104.571 18.3641 105.134 18.6901C105.679 19.0159 106.121 19.4894 106.409 20.0559C106.72 20.6486 106.876 21.3617 106.876 22.1954C106.882 22.7672 106.788 23.3356 106.597 23.8748Z" fill="white"/>
<path id="Vector_8" d="M112.958 25.6626C112.768 25.4271 112.673 25.0892 112.673 24.6487V12.0352H110.442V24.7916C110.429 25.3643 110.546 25.9325 110.785 26.453C111.012 26.923 111.377 27.3124 111.831 27.569C112.361 27.8565 112.958 27.9979 113.561 27.9786H114.813V26.0206H113.902C113.463 26.0145 113.148 25.898 112.958 25.6626Z" fill="white"/>
<path id="Vector_9" d="M125.151 18.6858C124.88 18.1313 124.488 17.6452 124.003 17.2635C123.515 16.8863 122.958 16.608 122.363 16.4442C121.73 16.2672 121.075 16.179 120.417 16.1823C119.432 16.1671 118.46 16.4062 117.595 16.8767C116.753 17.3472 116.095 18.089 115.728 18.9813L117.481 19.9868C117.693 19.4435 118.072 18.981 118.562 18.6654C119.055 18.345 119.658 18.1849 120.371 18.1849C120.881 18.178 121.388 18.2711 121.862 18.4588C122.305 18.6364 122.683 18.9464 122.943 19.3465C123.217 19.7566 123.354 20.2951 123.354 20.9623V22.2512C123.276 22.1683 123.192 22.0867 123.103 22.011C122.389 21.3895 121.358 21.0788 120.007 21.0788C119.2 21.0682 118.398 21.2071 117.641 21.4884C116.976 21.7267 116.393 22.1487 115.959 22.7053C115.561 23.2736 115.346 23.9502 115.344 24.6441C115.342 25.338 115.552 26.016 115.947 26.5867C116.372 27.1347 116.938 27.556 117.585 27.8048C118.321 28.0932 119.106 28.236 119.896 28.2252C121.261 28.2252 122.316 27.9029 123.06 27.2582C123.21 27.1276 123.347 26.9827 123.469 26.8257V27.9754H125.586V20.7568C125.605 20.042 125.456 19.3328 125.151 18.6858ZM122.602 26.0137C122.057 26.334 121.376 26.4942 120.56 26.4942C119.725 26.4942 119.03 26.334 118.477 26.0137C117.923 25.6933 117.647 25.2304 117.647 24.625C117.635 24.3334 117.707 24.0445 117.854 23.7924C118.001 23.5404 118.217 23.3357 118.477 23.2027C119.03 22.8911 119.725 22.7358 120.56 22.7366C121.379 22.7366 122.06 22.8967 122.602 23.2171C122.857 23.3515 123.069 23.5551 123.214 23.8045C123.359 24.0539 123.431 24.3391 123.421 24.6274C123.421 25.2344 123.148 25.6969 122.602 26.0149V26.0137Z" fill="white"/>
<path id="Vector_10" d="M21.6445 22.3096C21.6418 24.143 22.3643 25.9032 23.6543 27.206C26.1434 29.6951 29.5226 29.6903 31.6765 28.5202C34.3134 27.0895 40.2453 22.7985 34.0863 4.99902C34.0863 13.4008 21.6445 14.2549 21.6445 22.3096Z" fill="white"/>
<path id="Vector_11" d="M27.3094 12.3545C26.901 10.1525 26.2463 7.89773 25.2672 4.99902C25.2672 13.4008 12.8242 14.2549 12.8242 22.3096C12.8214 24.1426 13.5429 25.9025 14.8316 27.206C17.3207 29.6951 20.7263 29.6879 22.8538 28.5202C17.9069 23.2454 19.6488 17.1392 27.3094 12.3545Z" fill="white"/>
<path id="Vector_12" d="M18.4891 12.3545C18.0806 10.1525 17.4247 7.89773 16.4469 4.99902C16.4469 13.4008 4.00391 14.2549 4.00391 22.3096C4.00391 26.4408 7.3507 28.2596 7.3507 28.2596C6.83066 30.4684 6.72194 32.7542 7.02996 35.0024L8.62648 34.7369C7.84564 32.022 8.32495 29.0656 8.37421 28.7761C10.4164 29.5942 12.5223 29.3515 14.0335 28.5226C9.07936 23.2454 10.8284 17.1404 18.4891 12.3545Z" fill="white"/>
</g>
</g>
</svg>
